<svg xmlns="http://www.w3.org/2000/svg" xmlns:xlink="http://www.w3.org/1999/xlink" width="512" zoomAndPan="magnify" viewBox="0 0 384 383.999986" height="512" preserveAspectRatio="xMidYMid meet" version="1.0"><defs><clipPath id="48ac2d497e"><path d="M 86.398438 0 L 297.601562 0 C 320.515625 0 342.492188 9.101562 358.695312 25.304688 C 374.898438 41.507812 384 63.484375 384 86.398438 L 384 297.601562 C 384 345.316406 345.316406 384 297.601562 384 L 86.398438 384 C 38.683594 384 0 345.316406 0 297.601562 L 0 86.398438 C 0 38.683594 38.683594 0 86.398438 0 Z M 86.398438 0 " clip-rule="nonzero"/></clipPath><clipPath id="a34038de52"><path d="M 0 0 L 384 0 L 384 384 L 0 384 Z M 0 0 " clip-rule="nonzero"/></clipPath><clipPath id="e123783bda"><path d="M 86.398438 0 L 297.601562 0 C 320.515625 0 342.492188 9.101562 358.695312 25.304688 C 374.898438 41.507812 384 63.484375 384 86.398438 L 384 297.601562 C 384 345.316406 345.316406 384 297.601562 384 L 86.398438 384 C 38.683594 384 0 345.316406 0 297.601562 L 0 86.398438 C 0 38.683594 38.683594 0 86.398438 0 Z M 86.398438 0 " clip-rule="nonzero"/></clipPath><clipPath id="f3629021e6"><rect x="0" width="384" y="0" height="384"/></clipPath><clipPath id="e77090d166"><path d="M 118.339844 158 L 228 158 L 228 267 L 118.339844 267 Z M 118.339844 158 " clip-rule="nonzero"/></clipPath><clipPath id="bb03cbf7e0"><path d="M 172 117.027344 L 214 117.027344 L 214 159 L 172 159 Z M 172 117.027344 " clip-rule="nonzero"/></clipPath><clipPath id="82efc73f46"><path d="M 214 146 L 265.339844 146 L 265.339844 199 L 214 199 Z M 214 146 " clip-rule="nonzero"/></clipPath></defs><g clip-path="url(#48ac2d497e)"><g><g clip-path="url(#f3629021e6)"><g clip-path="url(#a34038de52)"><g clip-path="url(#e123783bda)"><rect x="-84.48" width="552.96" fill="#0f0f0f" height="552.959979" y="-84.479997" fill-opacity="1"/></g></g></g></g></g><g clip-path="url(#e77090d166)"><path fill="#ffffff" d="M 226.308594 211.269531 C 226.191406 211.171875 226.0625 211.089844 225.929688 211.019531 L 225.828125 210.96875 C 225.796875 210.953125 225.761719 210.9375 225.726562 210.925781 L 225.625 210.886719 C 225.589844 210.871094 225.570312 210.867188 225.542969 210.859375 C 216.925781 208.003906 208.34375 205.03125 199.835938 201.863281 C 193.375 199.488281 188.011719 194.324219 185.445312 187.933594 C 185.246094 187.464844 185.070312 186.972656 184.902344 186.484375 C 182.699219 179.917969 179.855469 171.195312 177.660156 164.589844 C 177.414062 163.847656 176.683594 161.695312 176.453125 160.996094 C 176.453125 160.996094 176.351562 160.699219 176.351562 160.699219 C 176.132812 159.96875 175.644531 159.308594 174.96875 158.917969 C 173.882812 158.277344 172.425781 158.390625 171.457031 159.203125 C 171.089844 159.503906 170.792969 159.894531 170.601562 160.328125 C 169.703125 162.566406 168.8125 164.847656 167.941406 167.09375 C 165.550781 173.28125 163.085938 179.777344 160.761719 185.984375 C 159.664062 188.910156 158.011719 191.621094 155.898438 193.925781 C 153.53125 196.523438 150.59375 198.601562 147.351562 199.96875 C 146.558594 200.308594 144.726562 200.976562 143.882812 201.304688 C 136.90625 203.964844 127.832031 207.402344 120.894531 210.066406 C 118.941406 210.859375 118.359375 213.355469 119.710938 214.949219 C 120.0625 215.371094 120.550781 215.6875 121.070312 215.867188 C 129.582031 218.890625 138.265625 221.867188 146.804688 224.789062 C 148.335938 225.316406 149.824219 225.992188 151.234375 226.808594 C 155.492188 229.261719 158.988281 233.027344 161.125 237.457031 C 161.433594 238.101562 161.722656 238.765625 161.980469 239.4375 C 165.152344 247.777344 168.25 256.226562 171.179688 264.648438 C 171.246094 264.835938 171.335938 265.121094 171.414062 265.296875 C 171.9375 266.496094 173.40625 266.964844 174.554688 266.375 C 174.945312 266.175781 175.273438 265.859375 175.492188 265.480469 L 175.546875 265.378906 C 175.566406 265.34375 175.582031 265.308594 175.597656 265.273438 L 175.640625 265.167969 L 175.703125 265.011719 C 179.027344 256.644531 182.503906 248.171875 185.765625 239.785156 C 186.34375 238.304688 187.0625 236.882812 187.902344 235.539062 C 190 232.183594 192.894531 229.335938 196.285156 227.296875 C 197.382812 226.628906 198.539062 226.054688 199.726562 225.5625 C 207.804688 222.457031 216.011719 219.132812 224.023438 215.828125 L 225.191406 215.347656 L 225.484375 215.226562 L 225.628906 215.167969 C 225.988281 215.023438 226.328125 214.796875 226.578125 214.496094 C 227.386719 213.554688 227.269531 212.046875 226.308594 211.269531 Z M 226.308594 211.269531 " fill-opacity="1" fill-rule="nonzero"/></g><g clip-path="url(#bb03cbf7e0)"><path fill="#ffffff" d="M 173.035156 139.207031 C 173.167969 139.316406 173.328125 139.398438 173.488281 139.449219 C 175.917969 140.273438 178.355469 141.066406 180.792969 141.859375 C 181.933594 142.234375 183.03125 142.75 184.042969 143.398438 C 186.34375 144.867188 188.191406 147.042969 189.273438 149.546875 C 189.636719 150.402344 189.925781 151.28125 190.242188 152.152344 C 190.882812 153.964844 191.492188 155.789062 192.085938 157.621094 C 192.140625 157.785156 192.234375 157.941406 192.367188 158.066406 C 192.890625 158.5625 193.765625 158.417969 194.105469 157.792969 C 195.144531 155.378906 196.160156 152.949219 197.144531 150.515625 C 198.554688 146.980469 201.320312 144.035156 204.742188 142.375 C 204.941406 142.28125 205.144531 142.183594 205.347656 142.097656 C 206.65625 141.542969 209.34375 140.375 210.691406 139.785156 L 212.40625 139.039062 C 212.472656 139.011719 212.578125 138.96875 212.640625 138.9375 C 213.226562 138.65625 213.316406 137.832031 212.808594 137.4375 C 212.722656 137.371094 212.621094 137.320312 212.519531 137.289062 C 210.074219 136.511719 207.652344 135.675781 205.25 134.78125 C 201.5 133.40625 198.46875 130.320312 197.128906 126.570312 C 197.027344 126.289062 196.933594 126 196.847656 125.710938 C 196.09375 123.265625 195.335938 120.71875 194.503906 118.304688 C 193.925781 117.027344 192.109375 117.105469 191.613281 118.40625 C 190.914062 120.152344 190.175781 122.097656 189.496094 123.863281 C 189.074219 124.941406 188.671875 126.152344 188.128906 127.179688 C 186.574219 130.1875 183.921875 132.617188 180.769531 133.871094 C 178.640625 134.710938 175.570312 135.878906 173.453125 136.726562 C 173.230469 136.808594 173.03125 136.941406 172.867188 137.125 C 172.324219 137.722656 172.402344 138.703125 173.035156 139.207031 Z M 173.035156 139.207031 " fill-opacity="1" fill-rule="nonzero"/></g><g clip-path="url(#82efc73f46)"><path fill="#ffffff" d="M 264.621094 171.625 C 261.527344 170.675781 258.457031 169.648438 255.425781 168.511719 C 250.757812 166.804688 247.015625 162.90625 245.4375 158.207031 C 245.171875 157.457031 244.699219 155.691406 244.457031 154.894531 C 243.796875 152.605469 243.113281 150.324219 242.382812 148.054688 C 242.359375 147.984375 242.328125 147.890625 242.292969 147.8125 C 241.429688 145.914062 238.742188 146.050781 238.027344 147.988281 C 236.824219 150.957031 235.664062 153.945312 234.527344 156.941406 C 234.273438 157.597656 233.988281 158.238281 233.664062 158.863281 C 232.042969 161.988281 229.472656 164.617188 226.367188 166.285156 C 225.902344 166.535156 225.421875 166.765625 224.933594 166.976562 C 224.570312 167.125 222.6875 167.871094 222.261719 168.03125 C 220.59375 168.691406 217 170.09375 215.398438 170.757812 C 214.605469 171.113281 214.105469 171.980469 214.183594 172.84375 C 214.238281 173.664062 214.824219 174.417969 215.609375 174.664062 C 218.652344 175.671875 221.714844 176.625 224.773438 177.585938 C 226.191406 178.03125 227.558594 178.652344 228.820312 179.449219 C 231.6875 181.242188 234 183.941406 235.34375 187.050781 C 235.453125 187.308594 235.566406 187.574219 235.664062 187.839844 C 236.765625 190.847656 237.773438 193.890625 238.726562 196.949219 C 238.75 197.019531 238.785156 197.144531 238.8125 197.214844 C 239.222656 198.328125 240.707031 198.558594 241.472656 197.671875 C 241.605469 197.523438 241.699219 197.34375 241.773438 197.164062 L 241.886719 196.898438 C 243.132812 194.046875 244.390625 191.199219 245.566406 188.320312 C 245.84375 187.65625 246.15625 187.007812 246.5 186.382812 C 246.84375 185.753906 247.222656 185.144531 247.632812 184.558594 C 249.648438 181.695312 252.441406 179.390625 255.632812 177.945312 C 258.527344 176.675781 261.648438 175.226562 264.535156 173.929688 L 264.601562 173.898438 L 264.648438 173.878906 C 264.820312 173.800781 264.976562 173.6875 265.101562 173.539062 C 265.636719 172.910156 265.394531 171.902344 264.621094 171.625 Z M 264.621094 171.625 " fill-opacity="1" fill-rule="nonzero"/></g></svg>