<svg xmlns="http://www.w3.org/2000/svg" xmlns:xlink="http://www.w3.org/1999/xlink" width="512" zoomAndPan="magnify" viewBox="0 0 384 383.999986" height="512" preserveAspectRatio="xMidYMid meet" version="1.2"><defs><clipPath id="9f552c8be6"><path d="M 138.519531 251.617188 L 145.773438 251.617188 L 145.773438 255.367188 L 138.519531 255.367188 Z M 138.519531 251.617188 "/></clipPath><clipPath id="84159831f0"><path d="M 0.519531 0.617188 L 7.773438 0.617188 L 7.773438 4.367188 L 0.519531 4.367188 Z M 0.519531 0.617188 "/></clipPath><clipPath id="c82fad2141"><rect x="0" width="8" y="0" height="5"/></clipPath><clipPath id="908aa8cf25"><path d="M 163 65 L 335 65 L 335 245 L 163 245 Z M 163 65 "/></clipPath><clipPath id="a71e6c6a6d"><path d="M 49.769531 139.367188 L 217.125 42.242188 L 334.582031 244.628906 L 167.222656 341.753906 Z M 49.769531 139.367188 "/></clipPath><clipPath id="76b6ee759d"><path d="M 49.769531 139.367188 L 217.125 42.242188 L 334.582031 244.628906 L 167.222656 341.753906 Z M 49.769531 139.367188 "/></clipPath><clipPath id="4a68a7b31b"><path d="M 49 139 L 221 139 L 221 319 L 49 319 Z M 49 139 "/></clipPath><clipPath id="f0fc8af9d5"><path d="M 49.769531 139.367188 L 217.125 42.242188 L 334.582031 244.628906 L 167.222656 341.753906 Z M 49.769531 139.367188 "/></clipPath><clipPath id="a490bda762"><path d="M 49.769531 139.367188 L 217.125 42.242188 L 334.582031 244.628906 L 167.222656 341.753906 Z M 49.769531 139.367188 "/></clipPath></defs><g id="2336247560"><rect x="0" width="384" y="0" height="383.999986" style="fill:#ffffff;fill-opacity:1;stroke:none;"/><rect x="0" width="384" y="0" height="383.999986" style="fill:#000000;fill-opacity:1;stroke:none;"/><g clip-rule="nonzero" clip-path="url(#9f552c8be6)"><g transform="matrix(1,0,0,1,138,251)"><g clip-path="url(#c82fad2141)"><g clip-rule="nonzero" clip-path="url(#84159831f0)"><path style=" stroke:none;fill-rule:nonzero;fill:#e2e2e2;fill-opacity:1;" d="M 0.519531 0.617188 L 7.769531 0.617188 L 7.769531 4.367188 L 0.519531 4.367188 Z M 0.519531 0.617188 "/></g></g></g></g><g clip-rule="nonzero" clip-path="url(#908aa8cf25)"><g clip-rule="nonzero" clip-path="url(#a71e6c6a6d)"><g clip-rule="nonzero" clip-path="url(#76b6ee759d)"><path style=" stroke:none;fill-rule:nonzero;fill:#ffffff;fill-opacity:1;" d="M 272.417969 205.933594 L 163.003906 206.179688 L 185.496094 244.9375 L 334.195312 244.605469 L 230.269531 65.523438 L 200.839844 82.601562 L 272.417969 205.933594 "/></g></g></g><g clip-rule="nonzero" clip-path="url(#4a68a7b31b)"><g clip-rule="nonzero" clip-path="url(#f0fc8af9d5)"><g clip-rule="nonzero" clip-path="url(#a490bda762)"><path style=" stroke:none;fill-rule:nonzero;fill:#ffffff;fill-opacity:1;" d="M 49.769531 139.34375 L 153.699219 318.425781 L 183.125 301.347656 L 111.550781 178.011719 L 220.964844 177.769531 L 198.472656 139.011719 L 49.769531 139.34375 "/></g></g></g></g></svg>