<svg xmlns="http://www.w3.org/2000/svg" xmlns:xlink="http://www.w3.org/1999/xlink" width="280" zoomAndPan="magnify" viewBox="0 0 210 89.999999" height="120" preserveAspectRatio="xMidYMid meet" version="1.0"><defs><g/><clipPath id="571ab2e853"><path d="M 33 13 L 77 13 L 77 59 L 33 59 Z M 33 13 " clip-rule="nonzero"/></clipPath><clipPath id="ba1db087b5"><path d="M 5.25 31.828125 L 46.765625 7.734375 L 76.128906 58.332031 L 34.613281 82.425781 Z M 5.25 31.828125 " clip-rule="nonzero"/></clipPath><clipPath id="6be29a9bdc"><path d="M 5.25 31.828125 L 46.765625 7.734375 L 76.128906 58.332031 L 34.613281 82.425781 Z M 5.25 31.828125 " clip-rule="nonzero"/></clipPath><clipPath id="0c7b25e80f"><path d="M 5 31 L 49 31 L 49 77 L 5 77 Z M 5 31 " clip-rule="nonzero"/></clipPath><clipPath id="4b2adabba4"><path d="M 5.25 31.828125 L 46.765625 7.734375 L 76.128906 58.332031 L 34.613281 82.425781 Z M 5.25 31.828125 " clip-rule="nonzero"/></clipPath><clipPath id="c72a1b06e4"><path d="M 5.25 31.828125 L 46.765625 7.734375 L 76.128906 58.332031 L 34.613281 82.425781 Z M 5.25 31.828125 " clip-rule="nonzero"/></clipPath></defs><g clip-path="url(#571ab2e853)"><g clip-path="url(#ba1db087b5)"><g clip-path="url(#6be29a9bdc)"><path fill="#f41212" d="M 60.964844 48.484375 L 33.585938 48.546875 L 39.210938 58.246094 L 76.421875 58.164062 L 50.414062 13.347656 L 43.050781 17.621094 L 60.964844 48.484375 " fill-opacity="1" fill-rule="nonzero"/></g></g></g><g clip-path="url(#0c7b25e80f)"><g clip-path="url(#4b2adabba4)"><g clip-path="url(#c72a1b06e4)"><path fill="#009f0b" d="M 5.25 31.824219 L 31.253906 76.636719 L 38.621094 72.363281 L 20.707031 41.5 L 48.085938 41.4375 L 42.460938 31.738281 L 5.25 31.824219 " fill-opacity="1" fill-rule="nonzero"/></g></g></g><path stroke-linecap="butt" transform="matrix(0.798798, 0, 0, 0.798798, 79.410758, 2.609612)" fill="none" stroke-linejoin="miter" d="M 34.61181 46.001453 C 37.92245 47.277786 40.528906 49.106706 42.445849 51.488215 C 44.372573 53.859943 45.335935 56.617994 45.335935 59.767258 C 45.335935 63.43977 44.436145 66.49612 42.641456 68.931421 C 40.856547 71.352051 38.514159 73.13696 35.609403 74.281258 C 32.704647 75.425555 29.521152 75.997704 26.058918 75.997704 L 8.850439 75.997704 L 8.850439 18.166654 L 23.814334 18.166654 C 29.736319 18.166654 34.318401 19.379414 37.560578 21.800044 C 40.817425 24.220674 42.445849 27.863844 42.445849 32.719775 C 42.445849 35.766345 41.761227 38.421703 40.396871 40.685848 C 39.042297 42.954883 37.115573 44.725121 34.61181 46.001453 Z M 16.606236 43.439009 L 25.413417 43.439009 C 28.396415 43.439009 30.65078 42.588121 32.17162 40.881454 C 33.69735 39.174788 34.455325 36.988886 34.455325 34.318858 C 34.455325 31.389651 33.545755 29.208639 31.721725 27.775821 C 29.912365 26.333224 27.379261 25.60948 24.127304 25.60948 L 16.606236 25.60948 Z M 25.726387 68.794496 C 29.085928 68.794496 31.858649 68.036521 34.044552 66.525461 C 36.235344 65.004621 37.32585 62.779598 37.32585 59.845501 C 37.32585 56.79893 36.142431 54.559236 33.775593 53.131309 C 31.403864 51.683821 28.53823 50.960077 25.178689 50.960077 L 16.606236 50.960077 L 16.606236 68.794496 Z M 63.97723 14.010017 L 63.97723 75.997704 L 56.534405 75.997704 L 56.534405 14.010017 Z M 74.046073 59.126647 C 74.046073 55.869799 74.833389 52.896581 76.408021 50.197212 C 77.982653 47.502733 80.173446 45.390183 82.970618 43.849782 C 85.76779 42.304491 88.926835 41.526956 92.442861 41.526956 C 95.973557 41.526956 99.108151 42.304491 101.856422 43.849782 C 104.604693 45.390183 106.731913 47.492953 108.242973 50.158091 C 109.768703 52.828119 110.531568 55.816008 110.531568 59.126647 C 110.531568 62.432396 109.768703 65.434955 108.242973 68.129434 C 106.731913 70.809243 104.590022 72.926683 101.817301 74.476864 C 99.044579 76.027045 95.865974 76.799691 92.286376 76.799691 C 88.824141 76.799691 85.704218 76.071057 82.931497 74.613789 C 80.158775 73.14185 77.982653 71.073312 76.408021 68.403283 C 74.833389 65.733255 74.046073 62.642673 74.046073 59.126647 Z M 81.562251 59.20489 C 81.562251 61.288098 82.031707 63.205042 82.970618 64.9655 C 83.909529 66.721068 85.190751 68.109874 86.819175 69.127027 C 88.447599 70.139291 90.242288 70.647868 92.208133 70.647868 C 95.308495 70.647868 97.86605 69.552471 99.885687 67.366569 C 101.915104 65.180667 102.932257 62.456847 102.932257 59.20489 C 102.932257 55.948042 101.915104 53.214442 99.885687 50.999199 C 97.86605 48.788846 95.308495 47.678779 92.208133 47.678779 C 90.178716 47.678779 88.359576 48.202026 86.760493 49.243631 C 85.171191 50.285235 83.909529 51.683821 82.970618 53.439389 C 82.031707 55.199847 81.562251 57.121681 81.562251 59.20489 Z M 155.496604 42.87664 L 155.496604 76.232432 C 155.496604 79.279003 154.723958 82.027274 153.173777 84.477244 C 151.623596 86.936996 149.423023 88.88328 146.572059 90.316097 C 143.721095 91.763585 140.371334 92.482439 136.532557 92.482439 C 133.173016 92.482439 130.273151 91.924961 127.83785 90.805114 C 125.41722 89.685267 122.98192 88.032392 120.536839 85.8416 L 124.928204 80.726491 C 126.737564 82.433157 128.551814 83.719269 130.361173 84.594608 C 132.180314 85.479728 134.19017 85.919842 136.376072 85.919842 C 140.048583 85.919842 142.884877 85.044503 144.889843 83.284045 C 146.89481 81.528477 147.926634 79.151859 147.975535 76.15419 L 148.053778 69.924124 C 146.831238 71.997552 145.026768 73.665097 142.645259 74.926759 C 140.273531 76.17375 137.539931 76.799691 134.439568 76.799691 C 131.407668 76.799691 128.610496 76.027045 126.043161 74.476864 C 123.490496 72.926683 121.451299 70.823913 119.930459 68.168556 C 118.404728 65.498528 117.646753 62.53509 117.646753 59.283132 C 117.646753 55.923591 118.434069 52.896581 120.008701 50.197212 C 121.583333 47.502733 123.705664 45.390183 126.375692 43.849782 C 129.04572 42.304491 131.896684 41.526956 134.928584 41.526956 C 137.755098 41.526956 140.366444 42.089324 142.762623 43.209171 C 145.168583 44.329018 146.963272 45.766726 148.132021 47.522294 L 148.699279 42.87664 Z M 136.6108 70.647868 C 139.437313 70.647868 141.887284 69.875222 143.975383 68.325041 C 146.058592 66.77486 147.418057 64.745443 148.053778 62.2319 L 148.053778 55.688863 C 147.300693 53.278014 145.882546 51.3464 143.799337 49.889132 C 141.725909 48.417193 139.32973 47.678779 136.6108 47.678779 C 133.353952 47.678779 130.635022 48.749724 128.44423 50.881835 C 126.258328 53.018835 125.162932 55.737765 125.162932 59.048404 C 125.162932 61.170735 125.671509 63.117019 126.688662 64.887257 C 127.705816 66.642825 129.089731 68.046302 130.85019 69.087906 C 132.605758 70.129511 134.527591 70.647868 136.6108 70.647868 Z M 136.6108 70.647868 " stroke="#ffffff" stroke-width="1.600002" stroke-opacity="1" stroke-miterlimit="4"/><g fill="#000000" fill-opacity="1"><g transform="translate(79.835119, 63.31824)"><g><path d="M 27.21875 -23.96875 C 29.863281 -22.945312 31.953125 -21.488281 33.484375 -19.59375 C 35.015625 -17.695312 35.78125 -15.488281 35.78125 -12.96875 C 35.78125 -10.03125 35.066406 -7.59375 33.640625 -5.65625 C 32.210938 -3.71875 30.335938 -2.289062 28.015625 -1.375 C 25.703125 -0.457031 23.160156 0 20.390625 0 L 6.640625 0 L 6.640625 -46.203125 L 18.59375 -46.203125 C 23.320312 -46.203125 26.984375 -45.234375 29.578125 -43.296875 C 32.179688 -41.359375 33.484375 -38.453125 33.484375 -34.578125 C 33.484375 -32.148438 32.941406 -30.03125 31.859375 -28.21875 C 30.773438 -26.40625 29.226562 -24.988281 27.21875 -23.96875 Z M 12.84375 -26.015625 L 19.875 -26.015625 C 22.257812 -26.015625 24.054688 -26.691406 25.265625 -28.046875 C 26.484375 -29.410156 27.09375 -31.160156 27.09375 -33.296875 C 27.09375 -35.640625 26.367188 -37.382812 24.921875 -38.53125 C 23.472656 -39.6875 21.453125 -40.265625 18.859375 -40.265625 L 12.84375 -40.265625 Z M 20.125 -5.75 C 22.8125 -5.75 25.023438 -6.351562 26.765625 -7.5625 C 28.515625 -8.78125 29.390625 -10.5625 29.390625 -12.90625 C 29.390625 -15.332031 28.441406 -17.117188 26.546875 -18.265625 C 24.648438 -19.421875 22.363281 -20 19.6875 -20 L 12.84375 -20 L 12.84375 -5.75 Z M 20.125 -5.75 "/></g></g></g><g fill="#000000" fill-opacity="1"><g transform="translate(119.39155, 63.31824)"><g><path d="M 11.125 -49.53125 L 11.125 0 L 5.171875 0 L 5.171875 -49.53125 Z M 11.125 -49.53125 "/></g></g></g><g fill="#000000" fill-opacity="1"><g transform="translate(135.687007, 63.31824)"><g><path d="M 2.875 -13.484375 C 2.875 -16.078125 3.5 -18.453125 4.75 -20.609375 C 6.007812 -22.765625 7.757812 -24.457031 10 -25.6875 C 12.238281 -26.925781 14.765625 -27.546875 17.578125 -27.546875 C 20.390625 -27.546875 22.890625 -26.925781 25.078125 -25.6875 C 27.273438 -24.457031 28.976562 -22.773438 30.1875 -20.640625 C 31.40625 -18.515625 32.015625 -16.128906 32.015625 -13.484375 C 32.015625 -10.835938 31.40625 -8.4375 30.1875 -6.28125 C 28.976562 -4.132812 27.265625 -2.441406 25.046875 -1.203125 C 22.835938 0.0234375 20.304688 0.640625 17.453125 0.640625 C 14.679688 0.640625 12.1875 0.0546875 9.96875 -1.109375 C 7.75 -2.285156 6.007812 -3.9375 4.75 -6.0625 C 3.5 -8.195312 2.875 -10.671875 2.875 -13.484375 Z M 8.890625 -13.421875 C 8.890625 -11.753906 9.257812 -10.21875 10 -8.8125 C 10.75 -7.40625 11.769531 -6.296875 13.0625 -5.484375 C 14.363281 -4.679688 15.800781 -4.28125 17.375 -4.28125 C 19.851562 -4.28125 21.898438 -5.148438 23.515625 -6.890625 C 25.140625 -8.640625 25.953125 -10.816406 25.953125 -13.421875 C 25.953125 -16.015625 25.140625 -18.195312 23.515625 -19.96875 C 21.898438 -21.738281 19.851562 -22.625 17.375 -22.625 C 15.757812 -22.625 14.3125 -22.207031 13.03125 -21.375 C 11.757812 -20.539062 10.75 -19.421875 10 -18.015625 C 9.257812 -16.609375 8.890625 -15.078125 8.890625 -13.421875 Z M 8.890625 -13.421875 "/></g></g></g><g fill="#000000" fill-opacity="1"><g transform="translate(170.514556, 63.31824)"><g><path d="M 33.109375 -26.453125 L 33.109375 0.1875 C 33.109375 2.613281 32.488281 4.804688 31.25 6.765625 C 30.007812 8.734375 28.25 10.289062 25.96875 11.4375 C 23.695312 12.59375 21.023438 13.171875 17.953125 13.171875 C 15.273438 13.171875 12.960938 12.722656 11.015625 11.828125 C 9.078125 10.929688 7.128906 9.609375 5.171875 7.859375 L 8.6875 3.765625 C 10.132812 5.128906 11.582031 6.160156 13.03125 6.859375 C 14.476562 7.566406 16.078125 7.921875 17.828125 7.921875 C 20.765625 7.921875 23.03125 7.21875 24.625 5.8125 C 26.226562 4.40625 27.050781 2.507812 27.09375 0.125 L 27.15625 -4.859375 C 26.175781 -3.191406 24.738281 -1.859375 22.84375 -0.859375 C 20.945312 0.140625 18.765625 0.640625 16.296875 0.640625 C 13.867188 0.640625 11.628906 0.0234375 9.578125 -1.203125 C 7.535156 -2.441406 5.90625 -4.125 4.6875 -6.25 C 3.476562 -8.382812 2.875 -10.753906 2.875 -13.359375 C 2.875 -16.035156 3.5 -18.453125 4.75 -20.609375 C 6.007812 -22.765625 7.703125 -24.457031 9.828125 -25.6875 C 11.960938 -26.925781 14.242188 -27.546875 16.671875 -27.546875 C 18.929688 -27.546875 21.019531 -27.097656 22.9375 -26.203125 C 24.851562 -25.304688 26.28125 -24.15625 27.21875 -22.75 L 27.671875 -26.453125 Z M 18.015625 -4.28125 C 20.273438 -4.28125 22.234375 -4.894531 23.890625 -6.125 C 25.554688 -7.363281 26.644531 -8.984375 27.15625 -10.984375 L 27.15625 -16.234375 C 26.5625 -18.148438 25.429688 -19.691406 23.765625 -20.859375 C 22.109375 -22.035156 20.191406 -22.625 18.015625 -22.625 C 15.421875 -22.625 13.25 -21.769531 11.5 -20.0625 C 9.757812 -18.363281 8.890625 -16.191406 8.890625 -13.546875 C 8.890625 -11.835938 9.289062 -10.28125 10.09375 -8.875 C 10.90625 -7.476562 12.015625 -6.363281 13.421875 -5.53125 C 14.828125 -4.695312 16.359375 -4.28125 18.015625 -4.28125 Z M 18.015625 -4.28125 "/></g></g></g></svg>